PathFileType  4	(X/Y/Z) C:\Users\antoi\Documents\MyRepositories\mobilecap\ResultsAnalysis
DataRate	CameraRate	NumFrames	NumMarkers	Units	OrigDataRate	OrigDataStartFrame	OrigNumFrames
100.0	100.0	5	51	mm	100.0	29	231
Frame#	Time	r_knee			r_shank_antsup			r_ankle			r_calc			r_5meta			r_toe			L_knee			L_shank_antsup			L_ankle			L_calc			L_5meta			L_toe			r_sh2			r_sh3			r_sh4			L_sh2			L_sh3			r_thigh1			r_thigh2			r_thigh3			r_thigh4			r_thigh5			L_thigh1			L_thigh2			L_thigh3			L_thigh4			r.ASIS			r.PSIS			L.ASIS			L.PSIS			C7			R_Shoulder			L_Shoulder			R_Sternum			L_Sternum			R_humerus			R_elbow_med			R_elbow_lat			R_forearm			R_wrist_radius			R_wrist_ulna			L_humerus			L_elbow_med			L_elbow_lat			L_forearm			L_wrist_radius			L_wrist_ulna			R_HJC			L_HJC			R_HJC_reg			L_HJC_reg			
		X1	Y1	Z1	X2	Y2	Z2	X3	Y3	Z3	X4	Y4	Z4	X5	Y5	Z5	X6	Y6	Z6	X7	Y7	Z7	X8	Y8	Z8	X9	Y9	Z9	X10	Y10	Z10	X11	Y11	Z11	X12	Y12	Z12	X13	Y13	Z13	X14	Y14	Z14	X15	Y15	Z15	X16	Y16	Z16	X17	Y17	Z17	X18	Y18	Z18	X19	Y19	Z19	X20	Y20	Z20	X21	Y21	Z21	X22	Y22	Z22	X23	Y23	Z23	X24	Y24	Z24	X25	Y25	Z25	X26	Y26	Z26	X27	Y27	Z27	X28	Y28	Z28	X29	Y29	Z29	X30	Y30	Z30	X31	Y31	Z31	X32	Y32	Z32	X33	Y33	Z33	X34	Y34	Z34	X35	Y35	Z35	X36	Y36	Z36	X37	Y37	Z37	X38	Y38	Z38	X39	Y39	Z39	X40	Y40	Z40	X41	Y41	Z41	X42	Y42	Z42	X43	Y43	Z43	X44	Y44	Z44	X45	Y45	Z45	X46	Y46	Z46	X47	Y47	Z47	X48	Y48	Z48	X49	Y49	Z49	X50	Y50	Z50	X51	Y51	Z51	

29	0.28000000	-1090.05251	781.83689	-447.38372	-1119.02915	742.68814	-417.66450	-1232.54094	407.39106	-470.53335	-1294.61839	364.23044	-521.74746	-1115.80681	350.50937	-430.45305	-1073.37841	373.49610	-484.06278	-1100.03328	779.77221	-735.00326	-1087.05157	688.87817	-743.31945	-1237.04371	404.41436	-703.20333	-1301.50277	365.54681	-653.95116	-1122.29807	351.87878	-729.93290	-1078.39954	371.50457	-675.20041	-1156.75811	632.99428	-414.10946	-1054.92022	725.02900	-457.49269	-1094.11392	618.60068	-469.96814	-1165.74393	726.85364	-757.53108	-1207.51154	612.28349	-751.81791	-1132.72585	1066.85302	-400.50475	-1100.39606	956.77314	-399.43197	-1050.65969	952.25401	-426.32097	-1080.00896	1080.06697	-499.20750	-1041.76390	976.48804	-489.69622	-1137.17271	1097.04717	-759.06616	-1106.76478	957.90269	-768.59323	-1247.66864	1070.57020	-754.73620	-1216.78999	936.05318	-735.69735	-1101.31246	1222.27079	-462.32983	-1280.83524	1304.32381	-631.67744	-1109.17712	1203.08152	-692.34089	-1277.91073	1305.44214	-534.37095	-1010.14721	1713.42826	-612.74433	-953.18234	1659.20776	-448.11280	-980.19903	1636.28660	-770.16900	-957.81237	1578.82200	-588.19898	-960.41202	1574.03607	-620.98484	-1093.99700	1481.12577	-336.91725	-1200.03087	1455.29649	-351.55029	-1169.59956	1435.64823	-304.31129	-1215.22314	1302.24499	-272.96756	-1259.44787	1204.77892	-274.98946	-1282.09068	1227.77279	-244.76536	-1135.46785	1462.52913	-850.44636	-1238.42368	1421.00656	-807.63564	-1220.27049	1411.21548	-862.81934	-1266.72144	1277.35921	-891.04940	-1304.85450	1175.43572	-882.34805	-1340.10850	1196.40741	-898.69540	-1197.57949	1164.91808	-487.78453	-1212.87110	1162.70495	-677.82902	-1124.49115	1308.78097	-661.41767	-1119.91207	1310.53198	-509.07418	
30	0.29000000	-1086.84876	780.42029	-448.00553	-1115.80294	741.59365	-417.96111	-1232.31920	407.55073	-470.45222	-1294.69956	364.33187	-521.77220	-1115.37237	351.13838	-429.56170	-1073.36096	373.27319	-484.25439	-1097.72091	778.76913	-734.91577	-1085.28968	687.89912	-743.39643	-1237.07815	404.52025	-703.11058	-1301.55289	365.64913	-653.99242	-1122.37642	351.95244	-730.17803	-1078.42671	371.59852	-675.36974	-1154.49928	632.60550	-414.03741	-1051.76497	723.48970	-457.73307	-1092.17503	617.43576	-470.12640	-1163.71017	726.62358	-757.34734	-1206.30241	612.39549	-751.69780	-1133.12214	1064.92580	-399.28328	-1099.49599	955.06931	-399.13519	-1049.74606	951.26440	-426.05182	-1080.97692	1078.78800	-498.63681	-1041.04826	975.70807	-489.21798	-1138.74804	1095.42773	-758.80562	-1106.74615	956.63798	-768.11367	-1248.92387	1067.78054	-754.47316	-1216.55306	933.54425	-735.34270	-1102.34765	1217.99112	-461.91481	-1280.88410	1302.88102	-630.78335	-1111.07108	1198.82575	-691.98989	-1277.75834	1303.99642	-533.69337	-1002.31526	1706.74166	-612.42641	-945.16888	1650.93137	-447.89756	-972.85894	1628.65257	-770.08416	-952.67028	1570.74977	-586.76182	-954.61457	1566.36316	-620.74764	-1091.03801	1476.71990	-336.77056	-1197.45947	1453.52116	-352.37704	-1167.96249	1433.35227	-304.75751	-1218.54447	1302.34039	-272.39481	-1266.37838	1206.48639	-273.53036	-1288.26493	1230.79178	-243.72593	-1132.50400	1458.23878	-849.63861	-1237.25205	1419.78317	-807.98901	-1218.74914	1408.65632	-861.21025	-1269.43515	1277.41892	-890.52796	-1311.50103	1176.89822	-882.15545	-1346.03835	1199.39909	-898.09074	-1199.58341	1162.19624	-487.14808	-1215.38583	1160.16201	-677.15266	-1124.54898	1304.79626	-661.07575	-1119.64266	1306.54694	-508.68053	
31	0.30000000	-1083.60781	779.18799	-448.18409	-1112.65227	740.54829	-417.78953	-1231.96226	406.70247	-470.32260	-1294.66839	364.44709	-521.77092	-1115.11799	351.08362	-429.28549	-1073.29912	372.86585	-484.33454	-1095.42975	777.48773	-734.30710	-1083.23833	687.05229	-743.78852	-1237.08069	404.67107	-702.95691	-1301.58230	365.75615	-653.97131	-1122.41590	352.01293	-730.29153	-1078.47945	371.59916	-675.44521	-1152.28496	631.95570	-414.11383	-1048.58220	721.97500	-457.73096	-1090.21850	616.27334	-470.03498	-1161.47213	726.38726	-757.35545	-1205.04354	612.44152	-751.48244	-1133.57901	1062.68027	-398.54725	-1098.56016	953.32537	-398.86565	-1048.66510	950.20604	-425.88324	-1081.78145	1077.47062	-498.17513	-1040.29184	974.91265	-488.91401	-1140.13599	1093.91650	-758.44201	-1106.40486	955.44814	-767.67881	-1249.96345	1064.95988	-754.45283	-1216.05663	930.88978	-735.10623	-1103.37654	1213.56536	-461.43303	-1280.75655	1301.30937	-630.04430	-1113.18497	1193.99150	-691.73063	-1277.55618	1302.31289	-532.99751	-994.47245	1699.68676	-611.99655	-937.29738	1642.39515	-447.77746	-965.66018	1620.61820	-769.98787	-947.09886	1562.33332	-585.76111	-948.82505	1558.26922	-620.51354	-1087.72238	1471.67131	-336.78072	-1194.44118	1451.01746	-353.34254	-1165.80443	1430.31986	-305.37486	-1220.96565	1301.71278	-272.18146	-1272.11367	1207.76559	-272.44374	-1293.30704	1232.97682	-243.01024	-1129.20963	1453.34734	-848.67261	-1235.04722	1417.70533	-807.51838	-1216.59742	1405.64621	-859.81836	-1271.43653	1276.84306	-889.77885	-1317.20892	1177.84138	-881.81267	-1351.07336	1201.76038	-897.43141	-1201.59690	1159.47372	-486.29672	-1218.14511	1157.15923	-676.23338	-1124.65279	1300.55592	-660.73204	-1119.62074	1302.13377	-508.14011	
32	0.31000000	-1080.37492	778.04543	-447.71161	-1109.44789	739.54827	-417.44251	-1231.48124	404.95548	-470.28048	-1294.55989	364.51765	-521.62773	-1115.02362	350.60856	-429.40281	-1073.21415	372.42765	-484.32835	-1092.95327	776.20175	-733.81285	-1080.90575	686.19342	-744.22766	-1236.98065	404.86161	-702.85592	-1301.55986	365.89298	-653.93059	-1122.40452	352.02528	-730.28121	-1078.47616	371.50964	-675.40295	-1150.01652	630.99218	-414.38391	-1045.44789	720.34679	-457.56438	-1088.14487	615.07289	-469.86292	-1158.96466	726.00234	-757.24086	-1203.54438	612.44871	-751.29348	-1134.18986	1060.28170	-398.45986	-1097.59978	951.47374	-398.66089	-1047.50956	949.11299	-425.72412	-1082.45314	1076.00253	-497.78928	-1039.39315	974.14949	-488.56683	-1141.40122	1092.32761	-757.98460	-1105.74208	954.22398	-767.24717	-1250.85255	1061.97787	-754.38473	-1215.36092	928.19008	-734.92945	-1104.37086	1208.98444	-461.09798	-1280.57642	1299.55576	-629.38942	-1115.22743	1188.88180	-691.50190	-1277.23285	1300.34272	-532.29378	-986.78050	1692.36283	-611.31726	-929.60846	1633.54600	-447.67008	-958.53620	1612.18372	-769.71226	-941.14112	1554.01034	-585.88818	-943.06471	1549.73106	-620.19943	-1084.06256	1465.94733	-336.92298	-1190.97794	1447.73307	-354.37281	-1163.14004	1426.50010	-306.09826	-1222.43855	1300.14729	-272.29569	-1276.75932	1208.29009	-271.96742	-1296.99360	1234.10362	-242.53573	-1125.62263	1447.86581	-847.74280	-1231.67716	1414.60052	-806.09470	-1213.81331	1402.15657	-858.66795	-1272.80836	1275.34506	-888.58195	-1321.90467	1178.08596	-881.39906	-1355.05945	1203.26998	-896.82386	-1203.50822	1156.60499	-485.44608	-1220.85002	1153.90271	-675.30757	-1124.83103	1296.13510	-660.32935	-1119.57179	1297.37271	-507.61263	
33	0.32000000	-1077.24216	776.48125	-447.50453	-1106.23285	738.29763	-417.42755	-1231.01996	403.71145	-470.25193	-1294.46269	364.55831	-521.51640	-1114.93206	350.25435	-429.38187	-1073.11783	372.04788	-484.22532	-1090.09454	775.07561	-733.77483	-1078.40669	685.07526	-744.28750	-1236.74173	405.07928	-702.85320	-1301.47510	366.07112	-653.92435	-1122.36384	351.97648	-730.17170	-1078.41763	371.35353	-675.31158	-1147.81959	629.92556	-414.53111	-1042.36744	718.54440	-457.28212	-1086.04963	613.68730	-469.76574	-1156.18490	725.43581	-757.04708	-1201.69249	612.35300	-751.25114	-1134.65319	1057.93081	-398.27084	-1096.52983	949.56638	-398.45172	-1046.32603	948.02517	-425.44106	-1083.05161	1074.36398	-497.45844	-1038.36589	973.30549	-488.15980	-1142.55573	1090.52625	-757.62414	-1104.86738	952.97645	-766.85873	-1251.67168	1058.78234	-754.01029	-1214.48081	925.57388	-735.16124	-1105.32904	1204.20160	-460.76108	-1280.41289	1297.55283	-628.67957	-1116.80835	1183.98820	-691.11908	-1276.78286	1298.08452	-531.51904	-979.27384	1684.66701	-610.43225	-922.04403	1624.29973	-447.41043	-951.54301	1603.26540	-769.15202	-935.19474	1545.40914	-586.15779	-937.39617	1540.82230	-619.75122	-1080.06417	1459.57147	-337.17349	-1187.15391	1443.71500	-355.33041	-1159.99062	1421.82882	-306.83277	-1222.97480	1297.57494	-272.59920	-1280.24004	1207.74108	-272.12485	-1299.46619	1234.06608	-242.50038	-1121.76969	1441.69999	-846.89632	-1227.88978	1410.52123	-804.59060	-1210.64104	1397.78204	-857.35321	-1273.49363	1272.86241	-887.09046	-1325.58897	1177.47187	-880.89710	-1357.97470	1203.83514	-896.26805	-1205.26417	1153.39255	-484.75811	-1223.04979	1150.72811	-674.58021	-1124.92143	1291.68906	-659.72159	-1119.21643	1292.52459	-507.02330	
